<svg width="24" height="25" viewBox="0 0 24 25" fill="none" xmlns="http://www.w3.org/2000/svg">
<mask id="mask0_285424_5694" style="mask-type:alpha" maskUnits="userSpaceOnUse" x="0" y="0" width="24" height="25">
<rect y="0.5" width="24" height="24" fill="#D9D9D9"/>
</mask>
<g mask="url(#mask0_285424_5694)">
<mask id="mask1_285424_5694" style="mask-type:alpha" maskUnits="userSpaceOnUse" x="2" y="2" width="26" height="27">
<rect x="2" y="2.53418" width="26" height="26" fill="#D9D9D9"/>
</mask>
<g mask="url(#mask1_285424_5694)">
<path d="M12.8669 20.3274C12.6213 20.3274 12.4155 20.2443 12.2494 20.0782C12.0833 19.9121 12.0002 19.7062 12.0002 19.4607C12.0002 19.2151 12.0833 19.0093 12.2494 18.8432C12.4155 18.6771 12.6213 18.594 12.8669 18.594H18.0669V6.46069H12.8669C12.6213 6.46069 12.4155 6.37763 12.2494 6.21152C12.0833 6.04541 12.0002 5.83958 12.0002 5.59402C12.0002 5.34847 12.0833 5.14263 12.2494 4.97652C12.4155 4.81041 12.6213 4.72736 12.8669 4.72736H18.0669C18.5435 4.72736 18.9516 4.89708 19.291 5.23652C19.6305 5.57597 19.8002 5.98402 19.8002 6.46069V18.594C19.8002 19.0707 19.6305 19.4787 19.291 19.8182C18.9516 20.1576 18.5435 20.3274 18.0669 20.3274H12.8669ZM11.2852 13.394H5.06686C4.82131 13.394 4.61547 13.311 4.44936 13.1449C4.28325 12.9787 4.2002 12.7729 4.2002 12.5274C4.2002 12.2818 4.28325 12.076 4.44936 11.9099C4.61547 11.7437 4.82131 11.6607 5.06686 11.6607H11.2852L9.6602 10.0357C9.50131 9.8768 9.42186 9.6818 9.42186 9.45069C9.42186 9.21958 9.50131 9.01736 9.6602 8.84402C9.81908 8.67069 10.0213 8.58041 10.2669 8.57319C10.5124 8.56597 10.7219 8.64902 10.8952 8.82236L13.9935 11.9207C14.1669 12.094 14.2535 12.2962 14.2535 12.5274C14.2535 12.7585 14.1669 12.9607 13.9935 13.134L10.8952 16.2324C10.7219 16.4057 10.516 16.4887 10.2777 16.4815C10.0394 16.4743 9.83353 16.384 9.6602 16.2107C9.50131 16.0374 9.42547 15.8315 9.43269 15.5932C9.43992 15.3549 9.52297 15.1562 9.68186 14.9974L11.2852 13.394Z" fill="#CDCDCD"/>
</g>
</g>
</svg>
