<svg width="17" height="12" viewBox="0 0 17 12" fill="none" xmlns="http://www.w3.org/2000/svg">
<path d="M6.23282 9.04673L14.7078 0.571728C14.9078 0.371729 15.1453 0.271729 15.4203 0.271729C15.6953 0.271729 15.9328 0.371729 16.1328 0.571728C16.3328 0.771728 16.4328 1.00923 16.4328 1.28423C16.4328 1.55923 16.3328 1.79673 16.1328 1.99673L6.93282 11.1967C6.73282 11.3967 6.49949 11.4967 6.23282 11.4967C5.96616 11.4967 5.73282 11.3967 5.53282 11.1967L1.23282 6.89673C1.03282 6.69673 0.936991 6.45923 0.945324 6.18423C0.953658 5.90923 1.05782 5.67173 1.25782 5.47173C1.45782 5.27173 1.69532 5.17173 1.97032 5.17173C2.24532 5.17173 2.48282 5.27173 2.68282 5.47173L6.23282 9.04673Z" fill="white"/>
</svg>
